<?xml version="1.0" encoding="UTF-8"?>
<svg id="Layer_1" data-name="Layer 1" xmlns="http://www.w3.org/2000/svg" viewBox="0 0 1080 1080">
  <defs>
    <style>
      .cls-1, .cls-2 {
        fill: #fff;
      }

      .cls-3, .cls-4, .cls-5, .cls-2, .cls-6, .cls-7, .cls-8, .cls-9, .cls-10 {
        stroke-miterlimit: 10;
      }

      .cls-3, .cls-4, .cls-7, .cls-8, .cls-9 {
        fill: none;
      }

      .cls-3, .cls-5, .cls-6, .cls-8, .cls-10 {
        stroke: #100f2e;
      }

      .cls-3, .cls-6 {
        stroke-width: 6.84px;
      }

      .cls-4 {
        stroke-width: 12.05px;
      }

      .cls-4, .cls-2, .cls-7, .cls-9 {
        stroke: #fff;
      }

      .cls-5 {
        stroke-width: 6.15px;
      }

      .cls-5, .cls-6, .cls-10, .cls-11 {
        fill: #100f2e;
      }

      .cls-5, .cls-10 {
        stroke-linecap: square;
      }

      .cls-2 {
        stroke-width: 6.29px;
      }

      .cls-7 {
        stroke-width: 8.81px;
      }

      .cls-8 {
        stroke-width: 6.61px;
      }

      .cls-9 {
        stroke-width: 11.12px;
      }

      .cls-10 {
        stroke-width: 3.91px;
      }
    </style>
  </defs>
  <g>
    <path class="cls-1" d="m79.39,624.69c3.27,1.13,6.26.82,8.13.43,1.32,1.21,3.18,3.17,4.71,5.99,1.6,2.95,1.47,4.33,2.57,6.84,1.89,4.35,5.12,6.8,8.55,9.41,1.21.92,5.18,3.79,11.55,5.99,11.25,3.88,21.03,2.44,25.66,1.71,7.2-1.14,13.6-2.15,19.68-7.27,5.9-4.97,8.37-11.18,9.41-14.54,28.8-.14,57.6-.29,86.4-.43,1.55,3.21,4.42,8.33,9.41,13.26,16.62,16.42,47.69,21.81,68.01,7.27,3.69-2.64,10.51-8.43,15.4-19.68,31.08.43,62.17.86,93.25,1.28.7,2.27,3.83,11.55,13.26,16.68,7.2,3.92,14.19,3.29,17.54,2.99,3.21-.29,7.31-.7,11.55-3.42,3.97-2.55,5.97-5.77,7.7-8.55,3.84-6.19,4.55-11.84,4.71-13.26.28-2.64.17-4.86,0-6.42,1.69-.72,2.97-1.52,3.85-2.14,4.73-3.33,6.72-7.71,7.27-8.98.58-1.32.98-2.49,1.71-11.12,1-11.82.96-13.91.43-16.68-.11-.57-.79-2.8-2.14-7.27-2.97-9.8-3.51-10.67-3.85-13.69-.65-5.81.99-5.94,0-9.84-.64-2.53-1.96-4.95-8.13-11.12-4.95-4.94-8.88-8.16-12.4-11.12-1.71-1.43-5.56-4.81-13.26-11.55-16.47-14.42-17.23-16.32-26.09-23.1-3.29-2.51-8.12-6.19-14.97-10.27-5.07-3.02-15.37-8.72-29.51-13.26-12.22-3.92-23.25-5.67-32.08-6.42-7.37-.21-17.49-.35-29.51,0-20.52.59-53.52,1.73-87.26,11.55-12.55,3.65-22.39,7.69-27.38,9.84-5.83,2.51-12.4,5.37-20.53,10.27-7.48,4.5-13.36,8.96-17.54,12.4-14.45,1.18-26.31,2.89-34.65,4.28,0,0-44.86,7.46-60.74,22.67-3.54,3.39-5.88,5.63-6.84,9.41-.76,2.97-.48,6.16-2.57,9.84-.78,1.37-1.37,2.41-2.57,3.42-1.16.98-2.08,1.26-3.27,2.58,0,0-.75.9-1.44,2.12-1.21,2.13-2.22,4.83-1.71,24.38.35,13.14.91,15.95-.86,20.53-.35.92-.97,2.34-.86,4.28.28,4.75,4.72,9.07,9.41,10.69Z"/>
    <path class="cls-6" d="m81.96,534.44c3.31,1.4,8.31,3.36,14.54,5.13,37.91,10.79,69.04.06,98.38-6.42,21.91-4.83,53.06-9.55,92.82-8.55-13.74,15.42-26.71,21.14-35.93,23.53-21.95,5.69-38.31-3.22-69.72,7.27-4.78,1.6-3.16,1.44-9.84,3.85-29.81,10.78-70.21,16.92-78.28,3.42-1.6-2.68-2.66-7.36-2.14-11.98.61-5.41,3.24-9.27,4.71-11.12"/>
    <line class="cls-3" x1="90.94" y1="551.55" x2="77.25" y2="547.27"/>
    <line class="cls-3" x1="93.08" y1="545.13" x2="79.39" y2="540.86"/>
    <line class="cls-8" x1="178.48" y1="556.11" x2="197.17" y2="532.88"/>
    <ellipse class="cls-5" cx="310.37" cy="605.66" rx="25.66" ry="38.5"/>
    <ellipse class="cls-10" cx="479.02" cy="613.61" rx="28" ry="14.23" transform="translate(-175.25 1035.39) rotate(-84.83)"/>
    <path class="cls-2" d="m500.72,518.82c1.07-4.56,2.14-9.12,3.21-13.68,7.7.57,15.4,1.14,23.1,1.71-2.42,2.42-4.85,4.85-7.27,7.27-2.14,2-4.28,3.99-6.42,5.99-4.21-.43-8.41-.86-12.62-1.29Z"/>
    <line class="cls-9" x1="506.71" y1="512.63" x2="444.69" y2="505.35"/>
    <path class="cls-9" d="m471.21,531.87c1.95-.46,8.16-2.18,12.83-8.13,3.63-4.62,4.46-9.42,4.71-11.55"/>
    <path class="cls-7" d="m467.36,523.32c1.52-.37,6.37-1.75,10.02-6.54,2.83-3.71,3.48-7.57,3.67-9.29"/>
  </g>
  <g>
    <path class="cls-1" d="m804.03,361.62c13.98,4.16,27.97,8.32,41.95,12.48.69,6.59,1.39,13.17,2.08,19.76,1.16.46,2.31.92,3.47,1.39-.12,1.39-.23,2.77-.35,4.16-6.36,4.39-12.71,8.78-19.07,13.17v5.55c-1.73.92-3.47,1.85-5.2,2.77.46,8.67.92,17.34,1.39,26,2.34-.43,4.59.59,5.55,2.43,1.03,1.97.09,3.98,0,4.16-.85,1.75-2.75,2.84-4.85,2.77.33.07,2.91.63,4.16,3.12.19.38,1.38,2.85,0,5.2-1.12,1.89-3.11,2.35-3.47,2.43.81,4.51,1.62,9.01,2.43,13.52,12.94,2.54,25.89,5.08,38.83,7.63,2.08,6.82,4.16,13.64,6.24,20.46,9.48,7.74,18.95,15.49,28.43,23.23,2.08,10.4,4.16,20.8,6.24,31.2,3.47-.35,6.93-.69,10.4-1.04,10.75,1.04,21.5,2.08,32.24,3.12,2.93,1.5,9.67,5.46,13.87,13.52,5.73,11,2.61,21.78,1.39,26-1.18,4.08-4.7,16.28-15.25,21.15-2.99,1.38-8.12,1.38-18.38,1.39-11.84,0-17.9-.04-24.96-2.43-4.53-1.53-8.94-3.02-13.17-6.93-8.28-7.65-10.73-19.84-8.67-29.82,1.52-7.36,5.3-12.6,7.97-15.6-1.96-10.05-3.93-20.11-5.89-30.16-4.85-3.58-9.71-7.17-14.56-10.75-8.28,4.06-16.68,8.19-25.31,12.13-9.59,4.39-19.18,8.78-28.78,13.17,1.16,2.08,2.31,4.16,3.47,6.24,6.11,1.18,12.22,2.35,18.32,3.53.59,2.64,1.19,5.28,1.78,7.92-7.51,6.47-15.02,12.94-22.54,19.42,3.35-1.85,6.7-3.7,10.05-5.55,6.02-.48,13.04-.63,20.8,0,5.45.44,10.44,1.19,14.91,2.08,1.73,2.16,15.31,19.62,9.36,37.44-.93,2.79-3.36,10.07-10.05,13.87-2,1.14-5.21,2.43-19.76,2.08-7.11-.17-12.97-.64-16.99-1.04-2.36-.58-6.89-2.03-11.09-5.89-3.58-3.3-5.21-6.77-6.24-9.01-1.15-2.52-3.66-8.19-2.77-15.6.53-4.4,2.05-7.74,3.12-9.71-2.23-1.66-3.32-4.38-2.77-6.93.62-2.92,3.09-4.3,3.47-4.51-.35-1.73-.69-3.47-1.04-5.2.23-1.96.46-3.93.69-5.89-2.08-2.2-4.16-4.39-6.24-6.59-5.55-.35-11.09-.69-16.64-1.04-1.27,1.04-2.54,2.08-3.81,3.12-.12,2.89-.23,5.78-.35,8.67-6.42,22.04-16.36,26.76-20.46,28.08-3.75,1.21-10.62.78-24.27-.35-13.42-1.1-20.2-1.7-23.23-3.81-10.52-7.34-11.7-23.52-12.13-29.47-.35-4.73-.02-8.7.35-11.44-5.2-.23-10.4-.46-15.6-.69-.69,1.39-1.39,2.77-2.08,4.16-2.2,1.27-4.39,2.54-6.59,3.81,1.2,1.41,2.84,3.61,4.16,6.59.57,1.28,1.91,4.56,2.43,12.13.26,3.77.58,8.41-.35,14.56-.94,6.24-2,13.31-7.28,19.76-1.75,2.14-4.89,5.88-10.05,7.28-1.62.44-2.37.32-8.67,0-11.12-.57,5.28.46-15.25-.69-3.72-.21-7.77-.44-12.13-.69-1.85-1.62-3.7-3.24-5.55-4.85-1.41-2.12-3.07-5.14-4.16-9.01-.58-2.04-.88-3.92-1.04-5.55-.1-5.27.28-9.65.69-12.83.53-4.09.96-7.37,2.43-11.44,1.72-4.77,4.07-8.36,5.89-10.75-.12-2.66-.23-5.32-.35-7.97,3.24-3.58,6.47-7.17,9.71-10.75,4.85.12,9.71.23,14.56.35.46-3,.92-6.01,1.39-9.01,1.39-.81,2.77-1.62,4.16-2.43,1.85-.12,3.7-.23,5.55-.35,1.39-1.39,2.77-2.77,4.16-4.16v-3.12c-.58-.92-1.16-1.85-1.73-2.77-.83-.91-2.03-2.22-3.47-3.81-2.48-2.76-3.73-4.15-4.16-4.85-.95-1.54-2.11-4.56-.69-10.05.12-1.73.23-3.47.35-5.2-.74-.47-1.85-1.34-2.43-2.77-.32-.81-.34-1.45-.35-3.81,0-2.57-.01-3.85,0-4.16.08-1.95.33-4.8,1.04-8.32,2.2-1.39,4.39-2.77,6.59-4.16,1.16-.01,2.58.06,4.16.35,1.49.27,2.77.65,3.81,1.04,6.82,1.04,13.64,2.08,20.46,3.12,15.26-11.21,30.51-22.42,45.77-33.63,23.46,5.08,46.92,10.17,70.38,15.25-.69-4.39-1.39-8.78-2.08-13.17-.15-.05-2.34-.91-2.77-3.12-.04-.19-.25-1.85.69-3.12.83-1.11,2.41-.9,2.43-1.39.02-.61-2.54-.92-3.81-2.77-.14-.2-1.05-1.56-.69-3.12.34-1.48,1.61-2.27,2.43-2.77,1.24-.77,2.44-.98,3.12-1.04-.35-8.55-.69-17.1-1.04-25.66-2.81-.07-5.03-1.34-5.55-3.12-.11-.38-.19-.96,0-1.73-5.78-1.16-11.56-2.31-17.34-3.47-.46-4.97-.92-9.94-1.39-14.91-.69-.29-1.39-.58-2.08-.87-.58-.29-1.15-.58-1.73-.86-.46-1.73-.92-3.47-1.39-5.2,1.39-1.16,2.77-2.31,4.16-3.47.12-4.97.23-9.94.35-14.91,5.43-3.81,10.86-7.63,16.3-11.44Z"/>
    <ellipse class="cls-11" cx="727.28" cy="572.65" rx="29.14" ry="12.7" transform="translate(87.58 1241.71) rotate(-84.5)"/>
    <path class="cls-11" d="m817.21,614.72c-.2,1.51-1.24,9.52,4.16,16.3,1.07,1.34,6.16,7.74,12.83,7.28,8.76-.6,14.31-12.62,14.99-21.15.1-1.26.51-7.73-3.2-14.21-1.29-2.25-3.39-5.81-7.63-7.63-.87-.37-2.87-1.21-5.55-1.04-4.6.29-7.55,3.32-8.32,4.16,2.89,2.08,5.78,4.16,8.67,6.24,1.85,1.96,3.7,3.93,5.55,5.89-.62,1.74-1.23,3.48-1.85,5.23l-1.59.88c-1.23.68-2.77.4-3.67-.67-1.44-1.7-2.89-3.4-4.33-5.09-2.66-1.04-5.32-2.08-7.97-3.12-.73,1.52-1.69,3.9-2.08,6.93Z"/>
    <path class="cls-11" d="m894.87,588.37c-1.8,10.11,2.41,18.18,3.7,20.44.16.28.34.59.61,1.01,1.65,2.63,5.95,8.61,12.1,9.31,9.87,1.13,20.52-11.7,21.68-24.06.89-9.58-3.76-21.62-12.84-24.96-2.78-1.02-5.38-1.01-7.21-.82,2.22,7.14,4.44,14.28,6.66,21.42.75,2.43-.4,5.04-2.7,6.12-1.05.5-2.11.99-3.16,1.49-2.55,1.2-5.59.1-6.78-2.45-2.75-5.86-5.49-11.71-8.24-17.57-2.44,4.05-3.4,7.71-3.81,10.05Z"/>
    <ellipse class="cls-11" cx="644.11" cy="606.07" rx="21.07" ry="13.46" transform="translate(-20.89 1189.16) rotate(-84.5)"/>
    <ellipse class="cls-11" cx="825.4" cy="381.49" rx="5.08" ry="6.82" transform="translate(-15.25 34.91) rotate(-2.4)"/>
  </g>
  <g>
    <path class="cls-1" d="m700.45,205.1c18.51,16.05,22.61,19.62,22.63,19.64,0,0,0,0,0,0,4.84,5.55,9.68,11.1,14.52,16.65,1.26,1.51,3.03,4.1,3.84,7.69.28,1.25.4,2.4.43,3.42-.14.43-.28.85-.43,1.28,1.21.71,2.84,1.71,4.7,2.99,1.38.95,5.54,3.89,10.25,8.54,8.94,8.81,14.12,18.1,17.08,23.49,1.91,3.48,3.33,6.46,4.27,8.54.05.11.52,1.09,0,2.14-.05.11-.56,1.07-1.71,1.28-3.02,1.56-7.1,2.98-11.1,1.71-4.41-1.4-7.15-5.57-8.54-4.7-.8.51-.14,2.05-.85,5.12-.43,1.83-1.13,3.27-1.71,4.27-1.6,1.67-4.4,4.17-8.54,5.98-5.44,2.38-10.33,2.33-12.81,2.14-3.32.13-5.52-.63-6.83-1.28-.75-.37-1.7-.94-2.99-1.71-1.44-.86-2.62-1.61-3.42-2.14-1,0-1.99,0-2.99,0-31.74,4.55-63.48,9.11-95.22,13.66h0c-3.99,2.99-7.97,5.98-11.96,8.97-2.56,1.14-5.12,2.28-7.69,3.42-.73,1.77-1.92,4.07-3.84,6.41-1.17,1.42-2.36,2.54-3.42,3.42,2.45.25,6.45.98,10.68,3.42,2.66,1.53,4.62,3.28,5.98,4.7.66-.72,3.86-4.06,8.97-4.27,3.28-.13,5.75,1.08,6.83,1.71,4.89-1.72,12.24-4.13,21.35-6.41,11.33-2.83,20.28-4.18,32.45-5.98,5.81-.86,13.83-1.96,23.49-2.99,1.64.81,3.4,1.98,3.42,3.42,0,.77-.47,3.85-19.22,8.54-12.62,3.16-21.16,3.96-32.03,5.55-6.07.89-15.06,2.35-26.05,4.7,1.42,2.28,2.85,4.55,4.27,6.83-.28,5.12-.57,10.25-.85,15.37,1,1.14,1.99,2.28,2.99,3.42,0,1.71,0,3.42,0,5.12-.43.43-.85.85-1.28,1.28.28.43.57.85.85,1.28.14.94.24,2.28,0,3.84-.19,1.22-.53,2.23-.85,2.99-.73,1-1.96,2.49-3.84,3.84-5.78,4.16-12.51,3.34-15.37,2.99-2.78-.34-6.32-.77-9.82-3.42-2.89-2.19-4.4-4.85-5.12-6.41-2.56,1.23-4.61,2.27-5.98,2.99-2.2,1.14-3.3,1.77-5.12,2.56-1.97.85-3.63,1.39-4.7,1.71-4.74.4-11.45.44-19.22-1.28-6.4-1.42-11.58-3.6-15.37-5.55-1.43,0-7.84-.15-11.53-4.7-1.81-2.22-2.61-5.07-2.99-6.41-.68-2.41-.84-4.51-.85-5.98-13.1-1.85-26.19-3.7-39.29-5.55-5.98-1.28-11.96-2.56-17.93-3.84-.85-2.99-1.71-5.98-2.56-8.97-22.06,1.99-44.12,3.99-66.19,5.98-.35,1.1-1.06,2.78-2.56,4.27-.7.7-2.1,1.88-5.98,2.99-1.88.54-5.18,1.45-9.82,1.28-3.46-.13-7.68-.28-11.96-2.99-1.41-.89-4.31-2.78-5.98-6.41-.93-2.02-1.1-3.75-1.28-5.55-.3-3.04-.57-5.68.85-8.11.84-1.44,1.66-1.76,2.14-3.42.49-1.69.15-3.14,0-3.84h0c.06-1.99.04-3.61,0-4.7-.08-2.52-.24-3.4,0-5.12.21-1.5.59-2.65.85-3.42.21-.63.64-1.82,1.71-3.84.77-1.46,1.87-3.38,3.42-5.55-2.84-.6-6.19-1.53-9.82-2.99-3.35-1.35-6.2-2.85-8.54-4.27-6.21-3.68-13.01-8.18-20.07-13.66-7.71-5.98-14.22-11.97-19.64-17.51.51-1,1.53-2.64,3.42-3.84.58-.37,2.99-1.81,7.69-1.28,4.61.52,7.78,2.52,10.68,4.27,3.45,2.09,8.59,5.06,15.37,8.54,18.05,10.67,24.93,15.65,26.9,17.93.5.57,1.54,1.97,3.42,2.56,2.38.76,3.62-.65,5.98.43.57.26,2.12.97,2.99,2.56.39.71.59,1.52.85,2.56.37,1.49.23,1.65.43,2.14.61,1.48,2.68,1.79,5.98,2.56,1.51.35,3.71.9,6.41,1.71,4.09,1.55,8.98,3.83,14.09,7.26,2.97,1.99,5.53,4.04,7.69,5.98,13.52-3.42,27.04-6.83,40.57-10.25,3.51-4.75,7.87-10.01,13.24-15.37,4.75-4.75,9.4-8.7,13.66-11.96-5.93-4.84-11.91-9.82-17.93-14.95-5.38-4.57-10.65-9.13-15.8-13.66-3.54.58-9.18.93-15.37-1.28-3.58-1.28-8.22-2.94-11.1-7.69-2.62-4.31-2.36-8.8-2.14-10.68-.97-3.23-.29-5.27,0-5.98.31-.75.95-1.92,1.71-2.99.83-1.17.99-1.11,1.28-1.71.69-1.42.23-2.65,0-4.7-.13-1.1-.22-2.7,0-4.7-5.92,2.42-12.32,4.74-19.22,6.83-18.34,5.57-35.23,8.04-49.53,8.97-1.35-.05-5.54-.36-6.83-2.99,0-1.28,0-2.56,0-3.84.71-.52,2.06-1.48,3.84-2.56,3.76-2.28,6.84-3.5,7.69-3.84,3.98-1.63,17.12-7.84,42.27-20.07,6.11-.89,9.3-1.61,11.1-2.14.62-.18,2.74-.78,5.67-1.15.49-.06,1-.1,1.59-.14,4-.21,6-.32,7.26,0,.62.16,1.43.41,2.14,0,.98-.57.76-1.85,1.71-3.42.14-.24.58-.92,2.14-2.14,2-1.56,7.85-6.11,12.81-5.12.44.09,1.6.36,2.99.85,1.25.44,2.26.91,2.99,1.28,1.5-.55,4.82-1.77,8.97-3.42,7.8-3.09,51.1-20.58,73.45-28.18,2.11-.72,7.81-2.62,11.96,0,.44.28,3.09,2.02,2.99,4.27-.07,1.62-1.54,2.78-3.42,4.27-1.67,1.32-4.35,2.8-4.7,2.99,0,0,0,0,0,0-3.36,1.84-20.57,8.68-27.33,11.53-9.36,3.94-9.54,4.81-19.64,6.83h0c-9.11,2.7-18.22,5.41-27.33,8.11-3.84,1-7.69,1.99-11.53,2.99.29,1.2.43,2.18.43,2.99h0c0,.86.45,1.56,1.28,2.14.71.57,1.64,1.41,2.56,2.56.4.49,2.14,2.41,2.99,5.55.7,2.6,1.4,6.72.43,11.53-.33,1.61-.79,3.04-1.28,4.27.53.25,3.15,1.57,4.27,4.7.94,2.62.23,4.89,0,5.55,14.66,7.54,29.32,15.09,43.98,22.63,11.66-6.42,21.97-9.04,28.61-10.25,0,0,24.27-4.4,63.2,11.53,2.3.94,5.95,2.63,8.11,6.41,1.53,2.67,1.75,5.41,1.71,7.26,28.47-.43,56.94-.85,85.4-1.28-.14-5.27-.28-10.53-.43-15.8,1-2.7,1.99-5.41,2.99-8.11,1.99-2.42,3.99-4.84,5.98-7.26-5.12-2.27-11.65-5.95-17.93-11.96-5.03-4.8-7.72-9-11.53-14.95-6.41-10-9.61-15-7.69-18.79,2.17-4.28,9.54-4.69,12.81-4.7Z"/>
    <ellipse class="cls-11" cx="593.91" cy="366.94" rx="10.89" ry="13.24"/>
    <path class="cls-11" d="m484.8,346.87c-3.56,3.42-7.12,6.83-10.68,10.25-21.64,1.99-43.27,3.99-64.91,5.98-.43,1.42-.85,2.85-1.28,4.27-1.43-1.24-7.57-6.26-16.65-5.98-7.33.23-12.37,3.78-14.09,5.12-.28-.38-1.83-2.59-1.28-5.55.46-2.48,2.1-3.9,2.56-4.27,2.86-1.23,7.1-2.64,12.38-2.99,8.43-.56,15.01,1.88,18.36,3.42,25.19-3.42,50.39-6.83,75.58-10.25Z"/>
    <path class="cls-11" d="m632.55,309.72c27.9-3.42,55.8-6.83,83.7-10.25,1.83-1.65,4.08-3.31,6.83-4.7,11.7-5.91,23.77-2.58,27.76-1.28.31.16,2.4,1.3,2.99,3.84.65,2.81-1.09,4.91-1.28,5.12-2.81-1.09-9.34-3.18-17.51-1.71-6.63,1.2-11.3,4.2-13.66,5.98-32.17,4.27-64.34,8.54-96.51,12.81,2.56-3.27,5.12-6.55,7.69-9.82Z"/>
    <path class="cls-11" d="m532.2,297.77c-16.51-11.24-33.02-22.49-49.53-33.73.83-2.52,2.23-8.11-.43-13.24-5.1-9.87-20.23-8.46-23.06-8.11-2.6.32-9.39,1.15-13.24,6.41-.92,1.26-3.12,4.27-2.14,7.69.82,2.84,3.44,4.28,4.27,4.7.35-1.37,1.36-4.53,4.27-6.41,2.24-1.44,4.45-1.38,8.54-1.28,2.71.07,5.96.15,9.82,1.71,3.36,1.36,7.41,2.99,7.69,5.98.25,2.67-2.56,5.72-6.83,7.26,15.23,13.81,30.46,27.61,45.69,41.42,4.98-4.13,9.96-8.26,14.95-12.38Z"/>
    <path class="cls-11" d="m626.57,386.59c3.98,1.35,6.51,3.8,7.69,5.12-.28,2.28-.57,4.55-.85,6.83-1.5-1.16-3.93-2.76-7.26-3.84-2.1-.69-6.12-1.94-11.1-.85-4.45.97-7.47,3.33-8.97,4.7-.43-1.42-.85-2.85-1.28-4.27,1.13-1.64,3.67-4.83,8.11-6.83,2.4-1.09,7.7-2.88,13.66-.85Z"/>
  </g>
  <circle class="cls-4" cx="540" cy="540" r="521"/>
  <g>
    <g>
      <path class="cls-11" d="m216.25,708.83h100.08c33.43,0,43.4,16.72,29.92,50.15l-20.45,50.36c-4.02,9.9-8.07,18.12-12.16,24.64-4.09,6.53-8.79,11.66-14.1,15.39-5.31,3.73-11.51,6.35-18.62,7.86-7.1,1.51-15.6,2.26-25.5,2.26h-100.08l60.91-150.66Zm36.8,105.46c2.87,0,4.98-.46,6.35-1.4,1.36-.93,2.69-2.91,3.98-5.92l18.29-45.63c2.15-4.88.72-7.32-4.31-7.32h-15.93l-24.32,60.26h15.93Z"/>
      <path class="cls-11" d="m388.43,708.83h98.36c33.43,0,43.4,16.72,29.92,50.15l-1.94,4.52c-2.01,5.02-4.2,9.58-6.56,13.67-2.37,4.09-4.92,7.78-7.64,11.08.72,2.73,1.22,5.1,1.51,7.1.29,2.01.25,4.13-.11,6.35-.36,2.23-1.04,4.81-2.04,7.75-1.01,2.94-2.44,6.71-4.31,11.3l-15.71,38.74h-63.49l15.07-37.45c2.15-4.88.72-7.32-4.3-7.32h-18.73l-18.08,44.77h-62.85l60.91-150.66Zm52.73,67.15c4.88,0,8.25-2.44,10.12-7.32l3.01-7.32c2.15-4.88.72-7.32-4.31-7.32h-17l-8.82,21.95h17Z"/>
      <path class="cls-11" d="m559.75,708.83h63.49l-60.91,150.66h-63.49l60.91-150.66Z"/>
      <path class="cls-11" d="m646.92,708.83h124.83l-18.29,45.2h-61.34l-3.87,9.47h51.87l-16.57,40.89h-51.87l-22.17,55.1h-63.49l60.91-150.66Z"/>
      <path class="cls-11" d="m799.94,754.03h-39.17l18.29-45.2h141.83l-18.29,45.2h-39.17l-42.61,105.46h-63.49l42.62-105.46Z"/>
    </g>
    <g>
      <path class="cls-1" d="m210.14,703.77h100.08c33.43,0,43.4,16.72,29.92,50.15l-20.45,50.36c-4.02,9.9-8.07,18.12-12.16,24.64-4.09,6.53-8.79,11.66-14.1,15.39-5.31,3.73-11.51,6.35-18.62,7.86-7.1,1.51-15.6,2.26-25.5,2.26h-100.08l60.91-150.66Zm36.8,105.46c2.87,0,4.98-.46,6.35-1.4,1.36-.93,2.69-2.91,3.98-5.92l18.29-45.63c2.15-4.88.72-7.32-4.31-7.32h-15.93l-24.32,60.26h15.93Z"/>
      <path class="cls-1" d="m382.32,703.77h98.36c33.43,0,43.4,16.72,29.92,50.15l-1.94,4.52c-2.01,5.02-4.2,9.58-6.56,13.67-2.37,4.09-4.92,7.78-7.64,11.08.72,2.73,1.22,5.1,1.51,7.1.29,2.01.25,4.13-.11,6.35-.36,2.23-1.04,4.81-2.04,7.75-1.01,2.94-2.44,6.71-4.31,11.3l-15.71,38.74h-63.49l15.07-37.45c2.15-4.88.72-7.32-4.3-7.32h-18.73l-18.08,44.77h-62.85l60.91-150.66Zm52.73,67.15c4.88,0,8.25-2.44,10.12-7.32l3.01-7.32c2.15-4.88.72-7.32-4.31-7.32h-17l-8.82,21.95h17Z"/>
      <path class="cls-1" d="m553.64,703.77h63.49l-60.91,150.66h-63.49l60.91-150.66Z"/>
      <path class="cls-1" d="m640.81,703.77h124.83l-18.29,45.2h-61.34l-3.87,9.47h51.87l-16.57,40.89h-51.87l-22.17,55.1h-63.49l60.91-150.66Z"/>
      <path class="cls-1" d="m793.83,748.97h-39.17l18.29-45.2h141.83l-18.29,45.2h-39.17l-42.61,105.46h-63.49l42.62-105.46Z"/>
    </g>
  </g>
</svg>